# xmcd
#
# Track frame offsets:
#	150
#	23592
#	54729
#	74964
#	108414
#	118736
#	149915
#	169552
#	193898
#	228203
#	254480
#	277331
#
# Disc length: 4286 seconds
#
# Revision: 0
# Processed by: cddbd v1.5.2PL0 Copyright (c) Steve Scherf et al.
# Submitted via: EasyCDDAExtractor 12.0.4.1
#
DISCID=c310bc0c
DTITLE=Metallica - For Whom The Bells Toll [CD.3)
DYEAR=2010
DGENRE=hard Rock
TTITLE0=Battery
TTITLE1=Fade To Black
TTITLE2=Fuel
TTITLE3=One
TTITLE4=Stone Cold Crazy
TTITLE5=Seek and Destroy
TTITLE6=Hero Of The Day
TTITLE7=Sad But True
TTITLE8=Low Mans Lyric
TTITLE9=Frantic
TTITLE10=Whiskey In The Jar
TTITLE11=To Live Is To Die
EXTD=
EXTT0=
EXTT1=
EXTT2=
EXTT3=
EXTT4=
EXTT5=
EXTT6=
EXTT7=
EXTT8=
EXTT9=
EXTT10=
EXTT11=
PLAYORDER=
